<?xml version="1.0" encoding="utf-8"?>
<!-- Generator: Adobe Illustrator 22.0.1, SVG Export Plug-In . SVG Version: 6.00 Build 0)  -->
<svg version="1.1" id="Ebene_1" xmlns="http://www.w3.org/2000/svg" xmlns:xlink="http://www.w3.org/1999/xlink" x="0px" y="0px"
	 viewBox="0 0 368.6 148" style="enable-background:new 0 0 368.6 148;" xml:space="preserve">
<style type="text/css">
	.st0{fill:#FFFFFF;}
	.st1{enable-background:new    ;}
	.st2{fill:#1D70B7;}
</style>
<g id="Rechteck_25">
	<rect x="208.8" y="63" class="st0" width="28" height="23"/>
</g>
<g class="st1">
	<path d="M68.5,21h-9.7v-1.9l4.6-4.9c0.4-0.4,0.7-0.7,0.9-1.1s0.4-0.6,0.6-0.9s0.3-0.5,0.3-0.7s0.1-0.4,0.1-0.7c0-0.3,0-0.6-0.1-0.8
		S65,9.6,64.8,9.4S64.4,9.1,64.2,9s-0.5-0.1-0.8-0.1c-0.7,0-1.3,0.2-1.7,0.6s-0.6,1-0.6,1.7h-2.7c0-0.6,0.1-1.2,0.4-1.8
		s0.6-1.1,1-1.5c0.4-0.4,1-0.8,1.6-1s1.3-0.4,2.1-0.4c0.7,0,1.4,0.1,1.9,0.3s1,0.5,1.4,0.8c0.4,0.4,0.7,0.8,0.9,1.3s0.3,1.1,0.3,1.7
		c0,0.5-0.1,0.9-0.2,1.3s-0.4,0.8-0.6,1.3s-0.6,0.8-1,1.3s-0.8,0.9-1.3,1.4l-2.7,2.8h6.2V21z"/>
	<path d="M73.1,18.8c0.7,0,1.4-0.1,1.9-0.2s1-0.4,1.3-0.7s0.6-0.7,0.8-1.1s0.3-0.9,0.4-1.5c-0.3,0.3-0.6,0.5-1.1,0.7s-1,0.3-1.6,0.3
		c-0.7,0-1.3-0.1-1.8-0.4s-0.9-0.6-1.3-1s-0.6-0.9-0.8-1.5s-0.3-1.2-0.3-1.9c0-0.7,0.1-1.3,0.3-1.9s0.5-1.1,0.9-1.6
		c0.4-0.5,0.9-0.8,1.5-1.1s1.2-0.4,2-0.4c0.7,0,1.4,0.1,2,0.4s1.1,0.7,1.5,1.2s0.7,1.1,0.9,1.8s0.3,1.5,0.3,2.3v0.9
		c0,1.1-0.1,2.2-0.4,3.1s-0.7,1.8-1.3,2.5s-1.3,1.2-2.2,1.6s-2,0.6-3.2,0.6h-0.2v-2.3H73.1z M75.5,14.3c0.2,0,0.5,0,0.7-0.1
		s0.4-0.2,0.6-0.3s0.3-0.3,0.4-0.4s0.2-0.4,0.3-0.6v-1c0-0.5-0.1-1-0.2-1.4s-0.3-0.7-0.4-1S76.6,9.1,76.3,9s-0.5-0.2-0.8-0.2
		c-0.3,0-0.6,0.1-0.9,0.2S74.2,9.4,74,9.6s-0.3,0.6-0.4,0.9s-0.1,0.7-0.1,1s0,0.7,0.1,1s0.2,0.6,0.4,0.9s0.4,0.4,0.6,0.6
		S75.2,14.3,75.5,14.3z"/>
</g>
<g class="st1">
	<path class="st0" d="M71.3,45l0.8-7.2H80v2.3h-5.7L74,43.2c0.2-0.1,0.5-0.2,0.9-0.4s0.8-0.2,1.3-0.2c0.7,0,1.3,0.1,1.8,0.3
		s1,0.5,1.4,0.9s0.6,0.9,0.8,1.5s0.3,1.3,0.3,2c0,0.6-0.1,1.2-0.3,1.8s-0.5,1.1-0.9,1.5s-0.9,0.8-1.5,1s-1.3,0.4-2.1,0.4
		c-0.6,0-1.2-0.1-1.8-0.3s-1.1-0.4-1.5-0.8s-0.8-0.8-1.1-1.3S71,48.7,71,48.1h2.7c0.1,0.6,0.3,1.1,0.7,1.4s0.9,0.5,1.5,0.5
		c0.4,0,0.7-0.1,0.9-0.2s0.5-0.3,0.6-0.6s0.3-0.5,0.4-0.9s0.1-0.7,0.1-1.1c0-0.4,0-0.7-0.1-1s-0.2-0.6-0.4-0.8s-0.4-0.4-0.7-0.5
		s-0.6-0.2-1-0.2c-0.3,0-0.5,0-0.7,0.1s-0.4,0.1-0.5,0.2s-0.3,0.2-0.4,0.2s-0.2,0.2-0.3,0.3L71.3,45z"/>
</g>
<g class="st1">
	<path class="st0" d="M65.8,82h-2.7V71.1l-3.6,1.3V70l6.2-2.2h0.1V82z"/>
	<path class="st0" d="M80.5,82h-9.7v-1.9l4.6-4.9c0.4-0.4,0.7-0.7,0.9-1.1s0.4-0.6,0.6-0.9s0.3-0.5,0.3-0.7s0.1-0.4,0.1-0.7
		c0-0.3,0-0.6-0.1-0.8s-0.2-0.5-0.4-0.6s-0.4-0.3-0.6-0.4s-0.5-0.1-0.8-0.1c-0.7,0-1.3,0.2-1.7,0.6s-0.6,1-0.6,1.7h-2.7
		c0-0.6,0.1-1.2,0.4-1.8s0.6-1.1,1-1.5s1-0.8,1.6-1s1.3-0.4,2.1-0.4c0.7,0,1.4,0.1,1.9,0.3s1,0.5,1.4,0.8s0.7,0.8,0.9,1.3
		s0.3,1.1,0.3,1.7c0,0.5-0.1,0.9-0.2,1.3s-0.4,0.8-0.6,1.3s-0.6,0.8-1,1.3s-0.8,0.9-1.3,1.4l-2.7,2.8h6.2V82z"/>
</g>
<g class="st1">
	<path class="st0" d="M65.8,113h-2.7v-10.9l-3.6,1.3V101l6.2-2.2h0.1V113z"/>
	<path class="st0" d="M73.1,110.8c0.7,0,1.4-0.1,1.9-0.2s1-0.4,1.3-0.7s0.6-0.7,0.8-1.1s0.3-0.9,0.4-1.5c-0.3,0.3-0.6,0.5-1.1,0.7
		s-1,0.3-1.6,0.3c-0.7,0-1.3-0.1-1.8-0.4s-0.9-0.6-1.3-1s-0.6-0.9-0.8-1.5s-0.3-1.2-0.3-1.9c0-0.7,0.1-1.3,0.3-1.9s0.5-1.1,0.9-1.6
		s0.9-0.8,1.5-1.1s1.2-0.4,2-0.4c0.7,0,1.4,0.1,2,0.4s1.1,0.7,1.5,1.2s0.7,1.1,0.9,1.8s0.3,1.5,0.3,2.3v0.9c0,1.1-0.1,2.2-0.4,3.1
		s-0.7,1.8-1.3,2.5s-1.3,1.2-2.2,1.6s-2,0.6-3.2,0.6h-0.2v-2.3H73.1z M75.5,106.3c0.2,0,0.5,0,0.7-0.1s0.4-0.2,0.6-0.3
		s0.3-0.3,0.4-0.4s0.2-0.4,0.3-0.6v-1c0-0.5-0.1-1-0.2-1.4s-0.3-0.7-0.4-1s-0.4-0.5-0.7-0.6s-0.5-0.2-0.8-0.2
		c-0.3,0-0.6,0.1-0.9,0.2s-0.5,0.4-0.6,0.6s-0.3,0.6-0.4,0.9s-0.1,0.7-0.1,1s0,0.7,0.1,1s0.2,0.6,0.4,0.9s0.4,0.4,0.6,0.6
		S75.2,106.3,75.5,106.3z"/>
</g>
<g class="st1">
	<path class="st0" d="M68.5,143h-9.7v-1.9l4.6-4.9c0.4-0.4,0.7-0.7,0.9-1.1s0.4-0.6,0.6-0.9s0.3-0.5,0.3-0.7s0.1-0.4,0.1-0.7
		c0-0.3,0-0.6-0.1-0.8s-0.2-0.5-0.4-0.6s-0.4-0.3-0.6-0.4s-0.5-0.1-0.8-0.1c-0.7,0-1.3,0.2-1.7,0.6s-0.6,1-0.6,1.7h-2.7
		c0-0.6,0.1-1.2,0.4-1.8s0.6-1.1,1-1.5s1-0.8,1.6-1s1.3-0.4,2.1-0.4c0.7,0,1.4,0.1,1.9,0.3s1,0.5,1.4,0.8s0.7,0.8,0.9,1.3
		s0.3,1.1,0.3,1.7c0,0.5-0.1,0.9-0.2,1.3s-0.4,0.8-0.6,1.3s-0.6,0.8-1,1.3s-0.8,0.9-1.3,1.4l-2.7,2.8h6.2V143z"/>
	<path class="st0" d="M78.4,128.7v2.3h-0.2c-0.7,0-1.3,0.1-1.9,0.3s-1,0.5-1.4,0.8s-0.7,0.8-0.9,1.2s-0.4,1-0.4,1.6
		c0.1-0.2,0.3-0.3,0.5-0.5s0.4-0.3,0.7-0.4s0.5-0.2,0.8-0.3s0.6-0.1,0.9-0.1c0.7,0,1.3,0.1,1.8,0.4s0.9,0.6,1.3,1s0.6,1,0.8,1.5
		s0.2,1.2,0.2,1.8c0,0.7-0.1,1.3-0.3,1.9s-0.5,1.1-0.9,1.5s-0.9,0.8-1.5,1s-1.2,0.4-2,0.4c-0.8,0-1.4-0.1-2.1-0.4s-1.1-0.7-1.6-1.2
		s-0.8-1.1-1-1.8s-0.3-1.4-0.3-2.3v-1c0-1.1,0.2-2.2,0.5-3.1s0.8-1.8,1.4-2.5s1.4-1.2,2.3-1.6s1.9-0.6,3.1-0.6H78.4z M75.7,135.7
		c-0.5,0-0.9,0.1-1.3,0.4s-0.7,0.6-0.8,1v0.8c0,0.5,0.1,1,0.2,1.4s0.3,0.7,0.5,1s0.4,0.5,0.7,0.6s0.6,0.2,0.9,0.2
		c0.3,0,0.6-0.1,0.9-0.2s0.5-0.3,0.7-0.6s0.3-0.5,0.4-0.8s0.1-0.7,0.1-1.1s0-0.7-0.1-1.1s-0.2-0.6-0.4-0.8s-0.4-0.4-0.7-0.6
		S76,135.7,75.7,135.7z"/>
</g>
<g class="st1">
	<path d="M99.9,12.7h1.5c0.7,0,1.3-0.2,1.7-0.6s0.5-0.9,0.5-1.5c0-0.3,0-0.5-0.1-0.8s-0.2-0.4-0.4-0.6s-0.4-0.3-0.6-0.4
		s-0.5-0.1-0.9-0.1c-0.3,0-0.5,0-0.8,0.1s-0.4,0.2-0.6,0.3s-0.3,0.3-0.4,0.5s-0.2,0.4-0.2,0.7h-2.7c0-0.6,0.1-1.1,0.4-1.6
		s0.6-0.9,1-1.2c0.4-0.3,0.9-0.6,1.5-0.8s1.2-0.3,1.8-0.3c0.7,0,1.3,0.1,1.9,0.3s1.1,0.4,1.5,0.8s0.7,0.8,1,1.3s0.3,1.1,0.3,1.8
		c0,0.3,0,0.6-0.1,0.9s-0.2,0.6-0.4,0.8s-0.4,0.5-0.7,0.7s-0.6,0.4-0.9,0.6c0.4,0.1,0.7,0.3,1,0.5s0.5,0.5,0.7,0.8s0.3,0.6,0.4,0.9
		s0.1,0.7,0.1,1.1c0,0.7-0.1,1.3-0.4,1.8s-0.6,1-1,1.3s-1,0.6-1.6,0.8s-1.3,0.3-2,0.3c-0.6,0-1.2-0.1-1.8-0.2s-1.1-0.4-1.5-0.8
		s-0.8-0.8-1.1-1.3s-0.4-1.1-0.4-1.8h2.7c0,0.3,0.1,0.5,0.2,0.8s0.3,0.4,0.4,0.6s0.4,0.3,0.7,0.4s0.5,0.1,0.9,0.1
		c0.7,0,1.2-0.2,1.6-0.5s0.6-0.9,0.6-1.5c0-0.4-0.1-0.7-0.2-1s-0.3-0.5-0.5-0.7s-0.5-0.3-0.8-0.4s-0.6-0.1-1-0.1h-1.5V12.7z"/>
	<path d="M118.4,15.6c0,0.9-0.1,1.7-0.3,2.4s-0.5,1.3-0.9,1.8s-0.9,0.8-1.5,1.1s-1.2,0.4-1.9,0.4c-0.7,0-1.4-0.1-1.9-0.4
		s-1.1-0.6-1.5-1.1s-0.7-1.1-0.9-1.8s-0.3-1.5-0.3-2.4v-3.4c0-0.9,0.1-1.7,0.3-2.4s0.5-1.3,0.9-1.8c0.4-0.5,0.9-0.8,1.5-1.1
		s1.2-0.4,1.9-0.4c0.7,0,1.4,0.1,1.9,0.4s1.1,0.6,1.5,1.1c0.4,0.5,0.7,1.1,0.9,1.8s0.3,1.5,0.3,2.4V15.6z M111.9,14.4l3.8-2.8
		c0-1-0.2-1.7-0.5-2.1s-0.8-0.7-1.4-0.7c-0.6,0-1.1,0.2-1.4,0.7s-0.5,1.2-0.5,2.3V14.4z M115.7,13.4l-3.8,2.8c0,0.9,0.2,1.6,0.5,2.1
		s0.8,0.7,1.4,0.7c0.6,0,1.1-0.2,1.4-0.7s0.5-1.3,0.5-2.3V13.4z"/>
</g>
<g class="st1">
	<path class="st0" d="M116.4,37.7v2.3h-0.2c-0.7,0-1.3,0.1-1.9,0.3s-1,0.5-1.4,0.8s-0.7,0.8-0.9,1.2s-0.4,1-0.4,1.6
		c0.1-0.2,0.3-0.3,0.5-0.5s0.4-0.3,0.7-0.4s0.5-0.2,0.8-0.3s0.6-0.1,0.9-0.1c0.7,0,1.3,0.1,1.8,0.4s0.9,0.6,1.3,1s0.6,1,0.8,1.5
		s0.2,1.2,0.2,1.8c0,0.7-0.1,1.3-0.3,1.9s-0.5,1.1-0.9,1.5s-0.9,0.8-1.5,1s-1.2,0.4-2,0.4c-0.8,0-1.4-0.1-2.1-0.4s-1.1-0.7-1.6-1.2
		s-0.8-1.1-1-1.8s-0.3-1.4-0.3-2.3v-1c0-1.1,0.2-2.2,0.5-3.1s0.8-1.8,1.4-2.5s1.4-1.2,2.3-1.6s1.9-0.6,3.1-0.6H116.4z M113.7,44.7
		c-0.5,0-0.9,0.1-1.3,0.4s-0.7,0.6-0.8,1v0.8c0,0.5,0.1,1,0.2,1.4s0.3,0.7,0.5,1s0.4,0.5,0.7,0.6s0.6,0.2,0.9,0.2
		c0.3,0,0.6-0.1,0.9-0.2s0.5-0.3,0.7-0.6s0.3-0.5,0.4-0.8s0.1-0.7,0.1-1.1s0-0.7-0.1-1.1s-0.2-0.6-0.4-0.8s-0.4-0.4-0.7-0.6
		S114,44.7,113.7,44.7z"/>
</g>
<g class="st1">
	<path class="st0" d="M103.8,82h-2.7V71.1l-3.6,1.3V70l6.2-2.2h0.1V82z"/>
	<path class="st0" d="M111.9,73.7h1.5c0.7,0,1.3-0.2,1.7-0.6s0.5-0.9,0.5-1.5c0-0.3,0-0.5-0.1-0.8s-0.2-0.4-0.4-0.6
		s-0.4-0.3-0.6-0.4s-0.5-0.1-0.9-0.1c-0.3,0-0.5,0-0.8,0.1s-0.4,0.2-0.6,0.3s-0.3,0.3-0.4,0.5s-0.2,0.4-0.2,0.7h-2.7
		c0-0.6,0.1-1.1,0.4-1.6s0.6-0.9,1-1.2s0.9-0.6,1.5-0.8s1.2-0.3,1.8-0.3c0.7,0,1.3,0.1,1.9,0.3s1.1,0.4,1.5,0.8s0.7,0.8,1,1.3
		s0.3,1.1,0.3,1.8c0,0.3,0,0.6-0.1,0.9s-0.2,0.6-0.4,0.8s-0.4,0.5-0.7,0.7s-0.6,0.4-0.9,0.6c0.4,0.1,0.7,0.3,1,0.5s0.5,0.5,0.7,0.8
		s0.3,0.6,0.4,0.9s0.1,0.7,0.1,1.1c0,0.7-0.1,1.3-0.4,1.8s-0.6,1-1,1.3s-1,0.6-1.6,0.8s-1.3,0.3-2,0.3c-0.6,0-1.2-0.1-1.8-0.2
		s-1.1-0.4-1.5-0.8s-0.8-0.8-1.1-1.3s-0.4-1.1-0.4-1.8h2.7c0,0.3,0.1,0.5,0.2,0.8s0.3,0.4,0.4,0.6s0.4,0.3,0.7,0.4s0.5,0.1,0.9,0.1
		c0.7,0,1.2-0.2,1.6-0.5s0.6-0.9,0.6-1.5c0-0.4-0.1-0.7-0.2-1s-0.3-0.5-0.5-0.7s-0.5-0.3-0.8-0.4s-0.6-0.1-1-0.1h-1.5V73.7z"/>
</g>
<g class="st1">
	<path class="st0" d="M106.5,113h-9.7v-1.9l4.6-4.9c0.4-0.4,0.7-0.7,0.9-1.1s0.4-0.6,0.6-0.9s0.3-0.5,0.3-0.7s0.1-0.4,0.1-0.7
		c0-0.3,0-0.6-0.1-0.8s-0.2-0.5-0.4-0.6s-0.4-0.3-0.6-0.4s-0.5-0.1-0.8-0.1c-0.7,0-1.3,0.2-1.7,0.6s-0.6,1-0.6,1.7h-2.7
		c0-0.6,0.1-1.2,0.4-1.8s0.6-1.1,1-1.5s1-0.8,1.6-1s1.3-0.4,2.1-0.4c0.7,0,1.4,0.1,1.9,0.3s1,0.5,1.4,0.8s0.7,0.8,0.9,1.3
		s0.3,1.1,0.3,1.7c0,0.5-0.1,0.9-0.2,1.3s-0.4,0.8-0.6,1.3s-0.6,0.8-1,1.3s-0.8,0.9-1.3,1.4l-2.7,2.8h6.2V113z"/>
	<path class="st0" d="M118.4,107.6c0,0.9-0.1,1.7-0.3,2.4s-0.5,1.3-0.9,1.8s-0.9,0.8-1.5,1.1s-1.2,0.4-1.9,0.4
		c-0.7,0-1.4-0.1-1.9-0.4s-1.1-0.6-1.5-1.1s-0.7-1.1-0.9-1.8s-0.3-1.5-0.3-2.4v-3.4c0-0.9,0.1-1.7,0.3-2.4s0.5-1.3,0.9-1.8
		s0.9-0.8,1.5-1.1s1.2-0.4,1.9-0.4c0.7,0,1.4,0.1,1.9,0.4s1.1,0.6,1.5,1.1s0.7,1.1,0.9,1.8s0.3,1.5,0.3,2.4V107.6z M111.9,106.4
		l3.8-2.8c0-1-0.2-1.7-0.5-2.1s-0.8-0.7-1.4-0.7c-0.6,0-1.1,0.2-1.4,0.7s-0.5,1.2-0.5,2.3V106.4z M115.7,105.4l-3.8,2.8
		c0,0.9,0.2,1.6,0.5,2.1s0.8,0.7,1.4,0.7c0.6,0,1.1-0.2,1.4-0.7s0.5-1.3,0.5-2.3V105.4z"/>
</g>
<g class="st1">
	<path class="st0" d="M106.5,143h-9.7v-1.9l4.6-4.9c0.4-0.4,0.7-0.7,0.9-1.1s0.4-0.6,0.6-0.9s0.3-0.5,0.3-0.7s0.1-0.4,0.1-0.7
		c0-0.3,0-0.6-0.1-0.8s-0.2-0.5-0.4-0.6s-0.4-0.3-0.6-0.4s-0.5-0.1-0.8-0.1c-0.7,0-1.3,0.2-1.7,0.6s-0.6,1-0.6,1.7h-2.7
		c0-0.6,0.1-1.2,0.4-1.8s0.6-1.1,1-1.5s1-0.8,1.6-1s1.3-0.4,2.1-0.4c0.7,0,1.4,0.1,1.9,0.3s1,0.5,1.4,0.8s0.7,0.8,0.9,1.3
		s0.3,1.1,0.3,1.7c0,0.5-0.1,0.9-0.2,1.3s-0.4,0.8-0.6,1.3s-0.6,0.8-1,1.3s-0.8,0.9-1.3,1.4l-2.7,2.8h6.2V143z"/>
	<path class="st0" d="M118.5,130.3l-5.5,12.7h-2.9l5.5-12h-7.1v-2.2h10V130.3z"/>
</g>
<g class="st1">
	<path d="M138.9,12.7h1.5c0.7,0,1.3-0.2,1.7-0.6s0.5-0.9,0.5-1.5c0-0.3,0-0.5-0.1-0.8s-0.2-0.4-0.4-0.6s-0.4-0.3-0.6-0.4
		s-0.5-0.1-0.9-0.1c-0.3,0-0.5,0-0.8,0.1s-0.4,0.2-0.6,0.3s-0.3,0.3-0.4,0.5s-0.2,0.4-0.2,0.7h-2.7c0-0.6,0.1-1.1,0.4-1.6
		s0.6-0.9,1-1.2c0.4-0.3,0.9-0.6,1.5-0.8s1.2-0.3,1.8-0.3c0.7,0,1.3,0.1,1.9,0.3s1.1,0.4,1.5,0.8s0.7,0.8,1,1.3s0.3,1.1,0.3,1.8
		c0,0.3,0,0.6-0.1,0.9s-0.2,0.6-0.4,0.8s-0.4,0.5-0.7,0.7s-0.6,0.4-0.9,0.6c0.4,0.1,0.7,0.3,1,0.5s0.5,0.5,0.7,0.8s0.3,0.6,0.4,0.9
		s0.1,0.7,0.1,1.1c0,0.7-0.1,1.3-0.4,1.8s-0.6,1-1,1.3s-1,0.6-1.6,0.8s-1.3,0.3-2,0.3c-0.6,0-1.2-0.1-1.8-0.2s-1.1-0.4-1.5-0.8
		s-0.8-0.8-1.1-1.3s-0.4-1.1-0.4-1.8h2.7c0,0.3,0.1,0.5,0.2,0.8s0.3,0.4,0.4,0.6s0.4,0.3,0.7,0.4s0.5,0.1,0.9,0.1
		c0.7,0,1.2-0.2,1.6-0.5s0.6-0.9,0.6-1.5c0-0.4-0.1-0.7-0.2-1s-0.3-0.5-0.5-0.7s-0.5-0.3-0.8-0.4s-0.6-0.1-1-0.1h-1.5V12.7z"/>
	<path d="M154.8,21h-2.7V10.1l-3.6,1.3V9l6.2-2.2h0.1V21z"/>
</g>
<g class="st1">
	<path class="st0" d="M157.5,39.3L151.9,52h-2.9l5.5-12h-7.1v-2.2h10V39.3z"/>
</g>
<g class="st1">
	<path class="st0" d="M142.8,82h-2.7V71.1l-3.6,1.3V70l6.2-2.2h0.1V82z"/>
	<path class="st0" d="M156.1,76.7h1.7v2.2h-1.7V82h-2.7v-3.1h-5.9l-0.1-1.7l6-9.4h2.8V76.7z M150.1,76.7h3.3v-5.3l-0.3,0.5
		L150.1,76.7z"/>
</g>
<g class="st1">
	<path class="st0" d="M145.5,113h-9.7v-1.9l4.6-4.9c0.4-0.4,0.7-0.7,0.9-1.1s0.4-0.6,0.6-0.9s0.3-0.5,0.3-0.7s0.1-0.4,0.1-0.7
		c0-0.3,0-0.6-0.1-0.8s-0.2-0.5-0.4-0.6s-0.4-0.3-0.6-0.4s-0.5-0.1-0.8-0.1c-0.7,0-1.3,0.2-1.7,0.6s-0.6,1-0.6,1.7h-2.7
		c0-0.6,0.1-1.2,0.4-1.8s0.6-1.1,1-1.5s1-0.8,1.6-1s1.3-0.4,2.1-0.4c0.7,0,1.4,0.1,1.9,0.3s1,0.5,1.4,0.8s0.7,0.8,0.9,1.3
		s0.3,1.1,0.3,1.7c0,0.5-0.1,0.9-0.2,1.3s-0.4,0.8-0.6,1.3s-0.6,0.8-1,1.3s-0.8,0.9-1.3,1.4l-2.7,2.8h6.2V113z"/>
	<path class="st0" d="M154.8,113h-2.7v-10.9l-3.6,1.3V101l6.2-2.2h0.1V113z"/>
</g>
<g class="st1">
	<path class="st0" d="M145.5,143h-9.7v-1.9l4.6-4.9c0.4-0.4,0.7-0.7,0.9-1.1s0.4-0.6,0.6-0.9s0.3-0.5,0.3-0.7s0.1-0.4,0.1-0.7
		c0-0.3,0-0.6-0.1-0.8s-0.2-0.5-0.4-0.6s-0.4-0.3-0.6-0.4s-0.5-0.1-0.8-0.1c-0.7,0-1.3,0.2-1.7,0.6s-0.6,1-0.6,1.7h-2.7
		c0-0.6,0.1-1.2,0.4-1.8s0.6-1.1,1-1.5s1-0.8,1.6-1s1.3-0.4,2.1-0.4c0.7,0,1.4,0.1,1.9,0.3s1,0.5,1.4,0.8s0.7,0.8,0.9,1.3
		s0.3,1.1,0.3,1.7c0,0.5-0.1,0.9-0.2,1.3s-0.4,0.8-0.6,1.3s-0.6,0.8-1,1.3s-0.8,0.9-1.3,1.4l-2.7,2.8h6.2V143z"/>
	<path class="st0" d="M157.1,132.6c0,0.7-0.2,1.3-0.5,1.8s-0.8,1-1.4,1.3c0.7,0.3,1.2,0.8,1.6,1.4s0.6,1.3,0.6,2.1
		c0,0.7-0.1,1.3-0.4,1.8s-0.6,0.9-1,1.3s-0.9,0.6-1.5,0.8s-1.2,0.3-1.9,0.3c-0.7,0-1.3-0.1-1.9-0.3s-1.1-0.4-1.5-0.8s-0.8-0.8-1-1.3
		s-0.4-1.1-0.4-1.8c0-0.4,0.1-0.8,0.2-1.1s0.3-0.7,0.5-1s0.4-0.5,0.7-0.8s0.6-0.4,0.9-0.6c-0.6-0.3-1.1-0.7-1.4-1.3
		s-0.5-1.2-0.5-1.8c0-0.6,0.1-1.2,0.3-1.7s0.5-0.9,0.9-1.2s0.9-0.6,1.4-0.8s1.1-0.3,1.8-0.3s1.2,0.1,1.8,0.3s1,0.4,1.4,0.8
		s0.7,0.8,0.9,1.2S157.1,131.9,157.1,132.6z M154.7,138.9c0-0.3,0-0.6-0.1-0.9s-0.2-0.5-0.4-0.7s-0.4-0.3-0.6-0.4s-0.5-0.1-0.8-0.1
		s-0.6,0-0.8,0.1s-0.5,0.2-0.6,0.4s-0.3,0.4-0.4,0.7s-0.1,0.6-0.1,0.9c0,0.7,0.2,1.2,0.6,1.5s0.9,0.6,1.5,0.6c0.3,0,0.6,0,0.8-0.1
		s0.5-0.2,0.6-0.4s0.3-0.4,0.4-0.7S154.7,139.3,154.7,138.9z M154.4,132.7c0-0.3,0-0.5-0.1-0.8s-0.2-0.4-0.4-0.6s-0.3-0.3-0.6-0.4
		s-0.5-0.1-0.7-0.1c-0.6,0-1,0.2-1.3,0.5s-0.4,0.8-0.4,1.4c0,0.3,0,0.5,0.1,0.8s0.2,0.4,0.3,0.6s0.3,0.3,0.6,0.4s0.5,0.1,0.7,0.1
		s0.5,0,0.7-0.1s0.4-0.2,0.5-0.4s0.3-0.4,0.3-0.6S154.4,133,154.4,132.7z"/>
</g>
<g class="st1">
	<path class="st0" d="M192.8,21h-2.7V10.1l-3.6,1.3V9l6.2-2.2h0.1V21z"/>
</g>
<g class="st1">
	<path class="st0" d="M195.1,41.6c0,0.7-0.2,1.3-0.5,1.8c-0.3,0.5-0.8,1-1.4,1.3c0.7,0.3,1.2,0.8,1.6,1.4c0.4,0.6,0.6,1.3,0.6,2.1
		c0,0.7-0.1,1.3-0.4,1.8s-0.6,0.9-1,1.3c-0.4,0.3-0.9,0.6-1.5,0.8c-0.6,0.2-1.2,0.3-1.9,0.3c-0.7,0-1.3-0.1-1.9-0.3
		c-0.6-0.2-1.1-0.4-1.5-0.8s-0.8-0.8-1-1.3s-0.4-1.1-0.4-1.8c0-0.4,0.1-0.8,0.2-1.1s0.3-0.7,0.5-1s0.4-0.5,0.7-0.8
		c0.3-0.2,0.6-0.4,0.9-0.6c-0.6-0.3-1.1-0.7-1.4-1.3c-0.3-0.5-0.5-1.2-0.5-1.8c0-0.6,0.1-1.2,0.3-1.7c0.2-0.5,0.5-0.9,0.9-1.2
		c0.4-0.3,0.9-0.6,1.4-0.8c0.5-0.2,1.1-0.3,1.8-0.3s1.2,0.1,1.8,0.3s1,0.4,1.4,0.8s0.7,0.8,0.9,1.2S195.1,40.9,195.1,41.6z
		 M192.7,47.9c0-0.3,0-0.6-0.1-0.9s-0.2-0.5-0.4-0.7c-0.2-0.2-0.4-0.3-0.6-0.4c-0.3-0.1-0.5-0.1-0.8-0.1s-0.6,0-0.8,0.1
		c-0.3,0.1-0.5,0.2-0.6,0.4s-0.3,0.4-0.4,0.7s-0.1,0.6-0.1,0.9c0,0.7,0.2,1.2,0.6,1.5s0.9,0.6,1.5,0.6c0.3,0,0.6,0,0.8-0.1
		c0.2-0.1,0.5-0.2,0.6-0.4c0.2-0.2,0.3-0.4,0.4-0.7C192.6,48.5,192.7,48.3,192.7,47.9z M192.4,41.7c0-0.3,0-0.5-0.1-0.8
		c-0.1-0.2-0.2-0.4-0.4-0.6c-0.2-0.2-0.3-0.3-0.6-0.4c-0.2-0.1-0.5-0.1-0.7-0.1c-0.6,0-1,0.2-1.3,0.5c-0.3,0.3-0.4,0.8-0.4,1.4
		c0,0.3,0,0.5,0.1,0.8s0.2,0.4,0.3,0.6c0.2,0.2,0.3,0.3,0.6,0.4c0.2,0.1,0.5,0.1,0.7,0.1s0.5,0,0.7-0.1s0.4-0.2,0.5-0.4
		c0.2-0.2,0.3-0.4,0.3-0.6C192.4,42.2,192.4,42,192.4,41.7z"/>
</g>
<g class="st1">
	<path class="st0" d="M180.8,82h-2.7V71.1l-3.6,1.3V70l6.2-2.2h0.1V82z"/>
	<path class="st0" d="M186.3,75l0.8-7.2h7.9v2.3h-5.7l-0.3,3.1c0.2-0.1,0.5-0.2,0.9-0.4s0.8-0.2,1.3-0.2c0.7,0,1.3,0.1,1.8,0.3
		s1,0.5,1.4,0.9c0.4,0.4,0.6,0.9,0.8,1.5s0.3,1.3,0.3,2c0,0.6-0.1,1.2-0.3,1.8c-0.2,0.6-0.5,1.1-0.9,1.5s-0.9,0.8-1.5,1
		c-0.6,0.3-1.3,0.4-2.1,0.4c-0.6,0-1.2-0.1-1.8-0.3c-0.6-0.2-1.1-0.4-1.5-0.8c-0.4-0.4-0.8-0.8-1.1-1.3c-0.3-0.5-0.4-1.1-0.4-1.8
		h2.7c0.1,0.6,0.3,1.1,0.7,1.4s0.9,0.5,1.5,0.5c0.4,0,0.7-0.1,0.9-0.2c0.3-0.1,0.5-0.3,0.6-0.6c0.2-0.2,0.3-0.5,0.4-0.9
		c0.1-0.3,0.1-0.7,0.1-1.1c0-0.4,0-0.7-0.1-1c-0.1-0.3-0.2-0.6-0.4-0.8s-0.4-0.4-0.7-0.5s-0.6-0.2-1-0.2c-0.3,0-0.5,0-0.7,0.1
		s-0.4,0.1-0.5,0.2c-0.1,0.1-0.3,0.2-0.4,0.2s-0.2,0.2-0.3,0.3L186.3,75z"/>
</g>
<g class="st1">
	<path class="st0" d="M183.5,113h-9.7v-1.9l4.6-4.9c0.4-0.4,0.7-0.7,0.9-1.1s0.4-0.6,0.6-0.9s0.3-0.5,0.3-0.7s0.1-0.4,0.1-0.7
		c0-0.3,0-0.6-0.1-0.8s-0.2-0.5-0.4-0.6s-0.4-0.3-0.6-0.4s-0.5-0.1-0.8-0.1c-0.7,0-1.3,0.2-1.7,0.6s-0.6,1-0.6,1.7h-2.7
		c0-0.6,0.1-1.2,0.4-1.8s0.6-1.1,1-1.5s1-0.8,1.6-1s1.3-0.4,2.1-0.4c0.7,0,1.4,0.1,1.9,0.3s1,0.5,1.4,0.8s0.7,0.8,0.9,1.3
		s0.3,1.1,0.3,1.7c0,0.5-0.1,0.9-0.2,1.3s-0.4,0.8-0.6,1.3s-0.6,0.8-1,1.3s-0.8,0.9-1.3,1.4l-2.7,2.8h6.2V113z"/>
	<path class="st0" d="M195.5,113h-9.7v-1.9l4.6-4.9c0.4-0.4,0.7-0.7,0.9-1.1c0.2-0.3,0.4-0.6,0.6-0.9c0.2-0.3,0.3-0.5,0.3-0.7
		s0.1-0.4,0.1-0.7c0-0.3,0-0.6-0.1-0.8c-0.1-0.2-0.2-0.5-0.4-0.6s-0.4-0.3-0.6-0.4c-0.2-0.1-0.5-0.1-0.8-0.1c-0.7,0-1.3,0.2-1.7,0.6
		c-0.4,0.4-0.6,1-0.6,1.7h-2.7c0-0.6,0.1-1.2,0.4-1.8c0.2-0.6,0.6-1.1,1-1.5s1-0.8,1.6-1c0.6-0.2,1.3-0.4,2.1-0.4
		c0.7,0,1.4,0.1,1.9,0.3s1,0.5,1.4,0.8c0.4,0.4,0.7,0.8,0.9,1.3s0.3,1.1,0.3,1.7c0,0.5-0.1,0.9-0.2,1.3s-0.4,0.8-0.6,1.3
		c-0.3,0.4-0.6,0.8-1,1.3c-0.4,0.4-0.8,0.9-1.3,1.4l-2.7,2.8h6.2V113z"/>
</g>
<g class="st1">
	<path class="st0" d="M183.5,143h-9.7v-1.9l4.6-4.9c0.4-0.4,0.7-0.7,0.9-1.1s0.4-0.6,0.6-0.9s0.3-0.5,0.3-0.7s0.1-0.4,0.1-0.7
		c0-0.3,0-0.6-0.1-0.8s-0.2-0.5-0.4-0.6s-0.4-0.3-0.6-0.4s-0.5-0.1-0.8-0.1c-0.7,0-1.3,0.2-1.7,0.6s-0.6,1-0.6,1.7h-2.7
		c0-0.6,0.1-1.2,0.4-1.8s0.6-1.1,1-1.5s1-0.8,1.6-1s1.3-0.4,2.1-0.4c0.7,0,1.4,0.1,1.9,0.3s1,0.5,1.4,0.8s0.7,0.8,0.9,1.3
		s0.3,1.1,0.3,1.7c0,0.5-0.1,0.9-0.2,1.3s-0.4,0.8-0.6,1.3s-0.6,0.8-1,1.3s-0.8,0.9-1.3,1.4l-2.7,2.8h6.2V143z"/>
	<path class="st0" d="M188.1,140.8c0.7,0,1.4-0.1,1.9-0.2c0.5-0.2,1-0.4,1.3-0.7s0.6-0.7,0.8-1.1c0.2-0.4,0.3-0.9,0.4-1.5
		c-0.3,0.3-0.6,0.5-1.1,0.7s-1,0.3-1.6,0.3c-0.7,0-1.3-0.1-1.8-0.4c-0.5-0.2-0.9-0.6-1.3-1c-0.3-0.4-0.6-0.9-0.8-1.5
		c-0.2-0.6-0.3-1.2-0.3-1.9c0-0.7,0.1-1.3,0.3-1.9c0.2-0.6,0.5-1.1,0.9-1.6s0.9-0.8,1.5-1.1c0.6-0.3,1.2-0.4,2-0.4
		c0.7,0,1.4,0.1,2,0.4c0.6,0.3,1.1,0.7,1.5,1.2c0.4,0.5,0.7,1.1,0.9,1.8c0.2,0.7,0.3,1.5,0.3,2.3v0.9c0,1.1-0.1,2.2-0.4,3.1
		c-0.3,1-0.7,1.8-1.3,2.5s-1.3,1.2-2.2,1.6c-0.9,0.4-2,0.6-3.2,0.6h-0.2v-2.3H188.1z M190.5,136.3c0.2,0,0.5,0,0.7-0.1
		c0.2-0.1,0.4-0.2,0.6-0.3c0.2-0.1,0.3-0.3,0.4-0.4s0.2-0.4,0.3-0.6v-1c0-0.5-0.1-1-0.2-1.4s-0.3-0.7-0.4-1
		c-0.2-0.3-0.4-0.5-0.7-0.6s-0.5-0.2-0.8-0.2c-0.3,0-0.6,0.1-0.9,0.2c-0.3,0.2-0.5,0.4-0.6,0.6c-0.2,0.3-0.3,0.6-0.4,0.9
		c-0.1,0.3-0.1,0.7-0.1,1s0,0.7,0.1,1c0.1,0.3,0.2,0.6,0.4,0.9c0.2,0.2,0.4,0.4,0.6,0.6C189.9,136.2,190.2,136.3,190.5,136.3z"/>
</g>
<g class="st1">
	<path class="st0" d="M233.5,21h-9.7v-1.9l4.6-4.9c0.4-0.4,0.7-0.7,0.9-1.1c0.2-0.3,0.4-0.6,0.6-0.9c0.2-0.3,0.3-0.5,0.3-0.7
		s0.1-0.4,0.1-0.7c0-0.3,0-0.6-0.1-0.8c-0.1-0.2-0.2-0.5-0.4-0.6s-0.4-0.3-0.6-0.4c-0.2-0.1-0.5-0.1-0.8-0.1c-0.7,0-1.3,0.2-1.7,0.6
		c-0.4,0.4-0.6,1-0.6,1.7h-2.7c0-0.6,0.1-1.2,0.4-1.8c0.2-0.6,0.6-1.1,1-1.5c0.4-0.4,1-0.8,1.6-1c0.6-0.2,1.3-0.4,2.1-0.4
		c0.7,0,1.4,0.1,1.9,0.3s1,0.5,1.4,0.8c0.4,0.4,0.7,0.8,0.9,1.3s0.3,1.1,0.3,1.7c0,0.5-0.1,0.9-0.2,1.3s-0.4,0.8-0.6,1.3
		c-0.3,0.4-0.6,0.8-1,1.3c-0.4,0.4-0.8,0.9-1.3,1.4l-2.7,2.8h6.2V21z"/>
</g>
<g class="st1">
	<path class="st0" d="M226.1,49.8c0.7,0,1.4-0.1,1.9-0.2c0.5-0.2,1-0.4,1.3-0.7s0.6-0.7,0.8-1.1c0.2-0.4,0.3-0.9,0.4-1.5
		c-0.3,0.3-0.6,0.5-1.1,0.7s-1,0.3-1.6,0.3c-0.7,0-1.3-0.1-1.8-0.4c-0.5-0.2-0.9-0.6-1.3-1c-0.3-0.4-0.6-0.9-0.8-1.5
		c-0.2-0.6-0.3-1.2-0.3-1.9c0-0.7,0.1-1.3,0.3-1.9c0.2-0.6,0.5-1.1,0.9-1.6s0.9-0.8,1.5-1.1c0.6-0.3,1.2-0.4,2-0.4
		c0.7,0,1.4,0.1,2,0.4c0.6,0.3,1.1,0.7,1.5,1.2c0.4,0.5,0.7,1.1,0.9,1.8c0.2,0.7,0.3,1.5,0.3,2.3v0.9c0,1.1-0.1,2.2-0.4,3.1
		c-0.3,1-0.7,1.8-1.3,2.5s-1.3,1.2-2.2,1.6c-0.9,0.4-2,0.6-3.2,0.6h-0.2v-2.3H226.1z M228.5,45.3c0.2,0,0.5,0,0.7-0.1
		c0.2-0.1,0.4-0.2,0.6-0.3c0.2-0.1,0.3-0.3,0.4-0.4s0.2-0.4,0.3-0.6v-1c0-0.5-0.1-1-0.2-1.4s-0.3-0.7-0.4-1
		c-0.2-0.3-0.4-0.5-0.7-0.6s-0.5-0.2-0.8-0.2c-0.3,0-0.6,0.1-0.9,0.2c-0.3,0.2-0.5,0.4-0.6,0.6c-0.2,0.3-0.3,0.6-0.4,0.9
		c-0.1,0.3-0.1,0.7-0.1,1s0,0.7,0.1,1c0.1,0.3,0.2,0.6,0.4,0.9c0.2,0.2,0.4,0.4,0.6,0.6C227.9,45.2,228.2,45.3,228.5,45.3z"/>
</g>
<g class="st1">
	<path class="st2" d="M218.8,82h-2.7V71.1l-3.6,1.3V70l6.2-2.2h0.1V82z"/>
	<path class="st2" d="M231.4,67.7v2.3h-0.2c-0.7,0-1.3,0.1-1.9,0.3c-0.6,0.2-1,0.5-1.4,0.8c-0.4,0.3-0.7,0.8-0.9,1.2s-0.4,1-0.4,1.6
		c0.2-0.2,0.3-0.3,0.5-0.5s0.4-0.3,0.7-0.4s0.5-0.2,0.8-0.3c0.3-0.1,0.6-0.1,0.9-0.1c0.7,0,1.3,0.1,1.8,0.4c0.5,0.3,0.9,0.6,1.3,1
		c0.3,0.4,0.6,1,0.8,1.5s0.2,1.2,0.2,1.8c0,0.7-0.1,1.3-0.3,1.9c-0.2,0.6-0.5,1.1-0.9,1.5s-0.9,0.8-1.5,1s-1.2,0.4-2,0.4
		c-0.8,0-1.4-0.1-2.1-0.4c-0.6-0.3-1.1-0.7-1.6-1.2c-0.4-0.5-0.8-1.1-1-1.8c-0.2-0.7-0.3-1.4-0.3-2.3v-1c0-1.1,0.2-2.2,0.5-3.1
		c0.3-1,0.8-1.8,1.4-2.5s1.4-1.2,2.3-1.6s1.9-0.6,3.1-0.6H231.4z M228.7,74.7c-0.5,0-0.9,0.1-1.3,0.4c-0.4,0.3-0.7,0.6-0.8,1v0.8
		c0,0.5,0.1,1,0.2,1.4s0.3,0.7,0.5,1s0.4,0.5,0.7,0.6c0.3,0.1,0.6,0.2,0.9,0.2c0.3,0,0.6-0.1,0.9-0.2c0.3-0.1,0.5-0.3,0.7-0.6
		c0.2-0.2,0.3-0.5,0.4-0.8s0.1-0.7,0.1-1.1s0-0.7-0.1-1.1s-0.2-0.6-0.4-0.8c-0.2-0.2-0.4-0.4-0.7-0.6S229,74.7,228.7,74.7z"/>
</g>
<g class="st1">
	<path class="st0" d="M221.5,113h-9.7v-1.9l4.6-4.9c0.4-0.4,0.7-0.7,0.9-1.1c0.2-0.3,0.4-0.6,0.6-0.9c0.2-0.3,0.3-0.5,0.3-0.7
		s0.1-0.4,0.1-0.7c0-0.3,0-0.6-0.1-0.8c-0.1-0.2-0.2-0.5-0.4-0.6s-0.4-0.3-0.6-0.4c-0.2-0.1-0.5-0.1-0.8-0.1c-0.7,0-1.3,0.2-1.7,0.6
		c-0.4,0.4-0.6,1-0.6,1.7h-2.7c0-0.6,0.1-1.2,0.4-1.8c0.2-0.6,0.6-1.1,1-1.5s1-0.8,1.6-1c0.6-0.2,1.3-0.4,2.1-0.4
		c0.7,0,1.4,0.1,1.9,0.3s1,0.5,1.4,0.8c0.4,0.4,0.7,0.8,0.9,1.3s0.3,1.1,0.3,1.7c0,0.5-0.1,0.9-0.2,1.3s-0.4,0.8-0.6,1.3
		c-0.3,0.4-0.6,0.8-1,1.3c-0.4,0.4-0.8,0.9-1.3,1.4l-2.7,2.8h6.2V113z"/>
	<path class="st0" d="M226.9,104.7h1.5c0.7,0,1.3-0.2,1.7-0.6c0.4-0.4,0.5-0.9,0.5-1.5c0-0.3,0-0.5-0.1-0.8
		c-0.1-0.2-0.2-0.4-0.4-0.6c-0.2-0.2-0.4-0.3-0.6-0.4c-0.3-0.1-0.5-0.1-0.9-0.1c-0.3,0-0.5,0-0.8,0.1c-0.2,0.1-0.4,0.2-0.6,0.3
		c-0.2,0.1-0.3,0.3-0.4,0.5c-0.1,0.2-0.2,0.4-0.2,0.7h-2.7c0-0.6,0.1-1.1,0.4-1.6c0.2-0.5,0.6-0.9,1-1.2c0.4-0.3,0.9-0.6,1.5-0.8
		c0.6-0.2,1.2-0.3,1.8-0.3c0.7,0,1.3,0.1,1.9,0.3s1.1,0.4,1.5,0.8c0.4,0.3,0.7,0.8,1,1.3c0.2,0.5,0.3,1.1,0.3,1.8
		c0,0.3,0,0.6-0.1,0.9c-0.1,0.3-0.2,0.6-0.4,0.8s-0.4,0.5-0.7,0.7c-0.3,0.2-0.6,0.4-0.9,0.6c0.4,0.1,0.7,0.3,1,0.5
		c0.3,0.2,0.5,0.5,0.7,0.8c0.2,0.3,0.3,0.6,0.4,0.9c0.1,0.3,0.1,0.7,0.1,1.1c0,0.7-0.1,1.3-0.4,1.8s-0.6,1-1,1.3
		c-0.4,0.4-1,0.6-1.6,0.8c-0.6,0.2-1.3,0.3-2,0.3c-0.6,0-1.2-0.1-1.8-0.2s-1.1-0.4-1.5-0.8s-0.8-0.8-1.1-1.3
		c-0.3-0.5-0.4-1.1-0.4-1.8h2.7c0,0.3,0.1,0.5,0.2,0.8c0.1,0.2,0.3,0.4,0.4,0.6c0.2,0.2,0.4,0.3,0.7,0.4c0.3,0.1,0.5,0.1,0.9,0.1
		c0.7,0,1.2-0.2,1.6-0.5s0.6-0.9,0.6-1.5c0-0.4-0.1-0.7-0.2-1c-0.1-0.3-0.3-0.5-0.5-0.7c-0.2-0.2-0.5-0.3-0.8-0.4
		c-0.3-0.1-0.6-0.1-1-0.1h-1.5V104.7z"/>
</g>
<g class="st1">
	<path class="st0" d="M214.9,134.7h1.5c0.7,0,1.3-0.2,1.7-0.6c0.4-0.4,0.5-0.9,0.5-1.5c0-0.3,0-0.5-0.1-0.8
		c-0.1-0.2-0.2-0.4-0.4-0.6c-0.2-0.2-0.4-0.3-0.6-0.4c-0.3-0.1-0.5-0.1-0.9-0.1c-0.3,0-0.5,0-0.8,0.1c-0.2,0.1-0.4,0.2-0.6,0.3
		c-0.2,0.1-0.3,0.3-0.4,0.5c-0.1,0.2-0.2,0.4-0.2,0.7h-2.7c0-0.6,0.1-1.1,0.4-1.6c0.2-0.5,0.6-0.9,1-1.2c0.4-0.3,0.9-0.6,1.5-0.8
		c0.6-0.2,1.2-0.3,1.8-0.3c0.7,0,1.3,0.1,1.9,0.3s1.1,0.4,1.5,0.8c0.4,0.3,0.7,0.8,1,1.3c0.2,0.5,0.3,1.1,0.3,1.8
		c0,0.3,0,0.6-0.1,0.9c-0.1,0.3-0.2,0.6-0.4,0.8s-0.4,0.5-0.7,0.7c-0.3,0.2-0.6,0.4-0.9,0.6c0.4,0.1,0.7,0.3,1,0.5
		c0.3,0.2,0.5,0.5,0.7,0.8c0.2,0.3,0.3,0.6,0.4,0.9c0.1,0.3,0.1,0.7,0.1,1.1c0,0.7-0.1,1.3-0.4,1.8s-0.6,1-1,1.3
		c-0.4,0.4-1,0.6-1.6,0.8c-0.6,0.2-1.3,0.3-2,0.3c-0.6,0-1.2-0.1-1.8-0.2s-1.1-0.4-1.5-0.8s-0.8-0.8-1.1-1.3
		c-0.3-0.5-0.4-1.1-0.4-1.8h2.7c0,0.3,0.1,0.5,0.2,0.8c0.1,0.2,0.3,0.4,0.4,0.6c0.2,0.2,0.4,0.3,0.7,0.4c0.3,0.1,0.5,0.1,0.9,0.1
		c0.7,0,1.2-0.2,1.6-0.5s0.6-0.9,0.6-1.5c0-0.4-0.1-0.7-0.2-1c-0.1-0.3-0.3-0.5-0.5-0.7c-0.2-0.2-0.5-0.3-0.8-0.4
		c-0.3-0.1-0.6-0.1-1-0.1h-1.5V134.7z"/>
	<path class="st0" d="M233.4,137.6c0,0.9-0.1,1.7-0.3,2.4c-0.2,0.7-0.5,1.3-0.9,1.8c-0.4,0.5-0.9,0.8-1.5,1.1
		c-0.6,0.2-1.2,0.4-1.9,0.4c-0.7,0-1.4-0.1-1.9-0.4c-0.6-0.2-1.1-0.6-1.5-1.1s-0.7-1.1-0.9-1.8c-0.2-0.7-0.3-1.5-0.3-2.4v-3.4
		c0-0.9,0.1-1.7,0.3-2.4s0.5-1.3,0.9-1.8s0.9-0.8,1.5-1.1c0.6-0.2,1.2-0.4,1.9-0.4c0.7,0,1.4,0.1,1.9,0.4c0.6,0.2,1.1,0.6,1.5,1.1
		s0.7,1.1,0.9,1.8s0.3,1.5,0.3,2.4V137.6z M226.9,136.4l3.8-2.8c0-1-0.2-1.7-0.5-2.1s-0.8-0.7-1.4-0.7c-0.6,0-1.1,0.2-1.4,0.7
		s-0.5,1.2-0.5,2.3V136.4z M230.7,135.4l-3.8,2.8c0,0.9,0.2,1.6,0.5,2.1s0.8,0.7,1.4,0.7c0.6,0,1.1-0.2,1.4-0.7
		c0.3-0.5,0.5-1.3,0.5-2.3V135.4z"/>
</g>
<g class="st1">
	<path class="st0" d="M265.9,12.7h1.5c0.7,0,1.3-0.2,1.7-0.6c0.4-0.4,0.5-0.9,0.5-1.5c0-0.3,0-0.5-0.1-0.8c-0.1-0.2-0.2-0.4-0.4-0.6
		c-0.2-0.2-0.4-0.3-0.6-0.4c-0.3-0.1-0.5-0.1-0.9-0.1c-0.3,0-0.5,0-0.8,0.1c-0.2,0.1-0.4,0.2-0.6,0.3c-0.2,0.1-0.3,0.3-0.4,0.5
		c-0.1,0.2-0.2,0.4-0.2,0.7h-2.7c0-0.6,0.1-1.1,0.4-1.6c0.2-0.5,0.6-0.9,1-1.2c0.4-0.3,0.9-0.6,1.5-0.8c0.6-0.2,1.2-0.3,1.8-0.3
		c0.7,0,1.3,0.1,1.9,0.3s1.1,0.4,1.5,0.8c0.4,0.3,0.7,0.8,1,1.3c0.2,0.5,0.3,1.1,0.3,1.8c0,0.3,0,0.6-0.1,0.9
		c-0.1,0.3-0.2,0.6-0.4,0.8s-0.4,0.5-0.7,0.7c-0.3,0.2-0.6,0.4-0.9,0.6c0.4,0.1,0.7,0.3,1,0.5c0.3,0.2,0.5,0.5,0.7,0.8
		c0.2,0.3,0.3,0.6,0.4,0.9c0.1,0.3,0.1,0.7,0.1,1.1c0,0.7-0.1,1.3-0.4,1.8s-0.6,1-1,1.3c-0.4,0.4-1,0.6-1.6,0.8
		c-0.6,0.2-1.3,0.3-2,0.3c-0.6,0-1.2-0.1-1.8-0.2s-1.1-0.4-1.5-0.8s-0.8-0.8-1.1-1.3c-0.3-0.5-0.4-1.1-0.4-1.8h2.7
		c0,0.3,0.1,0.5,0.2,0.8c0.1,0.2,0.3,0.4,0.4,0.6c0.2,0.2,0.4,0.3,0.7,0.4c0.3,0.1,0.5,0.1,0.9,0.1c0.7,0,1.2-0.2,1.6-0.5
		s0.6-0.9,0.6-1.5c0-0.4-0.1-0.7-0.2-1c-0.1-0.3-0.3-0.5-0.5-0.7c-0.2-0.2-0.5-0.3-0.8-0.4c-0.3-0.1-0.6-0.1-1-0.1h-1.5V12.7z"/>
</g>
<g class="st1">
	<path class="st0" d="M257.8,52h-2.7V41.1l-3.6,1.3V40l6.2-2.2h0.1V52z"/>
	<path class="st0" d="M272.4,46.6c0,0.9-0.1,1.7-0.3,2.4c-0.2,0.7-0.5,1.3-0.9,1.8c-0.4,0.5-0.9,0.8-1.5,1.1
		c-0.6,0.2-1.2,0.4-1.9,0.4c-0.7,0-1.4-0.1-1.9-0.4c-0.6-0.2-1.1-0.6-1.5-1.1s-0.7-1.1-0.9-1.8c-0.2-0.7-0.3-1.5-0.3-2.4v-3.4
		c0-0.9,0.1-1.7,0.3-2.4s0.5-1.3,0.9-1.8s0.9-0.8,1.5-1.1c0.6-0.2,1.2-0.4,1.9-0.4c0.7,0,1.4,0.1,1.9,0.4c0.6,0.2,1.1,0.6,1.5,1.1
		s0.7,1.1,0.9,1.8s0.3,1.5,0.3,2.4V46.6z M265.9,45.4l3.8-2.8c0-1-0.2-1.7-0.5-2.1s-0.8-0.7-1.4-0.7c-0.6,0-1.1,0.2-1.4,0.7
		s-0.5,1.2-0.5,2.3V45.4z M269.7,44.4l-3.8,2.8c0,0.9,0.2,1.6,0.5,2.1s0.8,0.7,1.4,0.7c0.6,0,1.1-0.2,1.4-0.7
		c0.3-0.5,0.5-1.3,0.5-2.3V44.4z"/>
</g>
<g class="st1">
	<path class="st0" d="M257.8,82h-2.7V71.1l-3.6,1.3V70l6.2-2.2h0.1V82z"/>
	<path class="st0" d="M272.5,69.3L266.9,82h-2.9l5.5-12h-7.1v-2.2h10V69.3z"/>
</g>
<g class="st1">
	<path class="st0" d="M260.5,113h-9.7v-1.9l4.6-4.9c0.4-0.4,0.7-0.7,0.9-1.1c0.2-0.3,0.4-0.6,0.6-0.9c0.2-0.3,0.3-0.5,0.3-0.7
		s0.1-0.4,0.1-0.7c0-0.3,0-0.6-0.1-0.8c-0.1-0.2-0.2-0.5-0.4-0.6s-0.4-0.3-0.6-0.4c-0.2-0.1-0.5-0.1-0.8-0.1c-0.7,0-1.3,0.2-1.7,0.6
		c-0.4,0.4-0.6,1-0.6,1.7h-2.7c0-0.6,0.1-1.2,0.4-1.8c0.2-0.6,0.6-1.1,1-1.5s1-0.8,1.6-1c0.6-0.2,1.3-0.4,2.1-0.4
		c0.7,0,1.4,0.1,1.9,0.3s1,0.5,1.4,0.8c0.4,0.4,0.7,0.8,0.9,1.3s0.3,1.1,0.3,1.7c0,0.5-0.1,0.9-0.2,1.3s-0.4,0.8-0.6,1.3
		c-0.3,0.4-0.6,0.8-1,1.3c-0.4,0.4-0.8,0.9-1.3,1.4l-2.7,2.8h6.2V113z"/>
	<path class="st0" d="M271.1,107.7h1.7v2.2h-1.7v3.1h-2.7v-3.1h-5.9l-0.1-1.7l6-9.4h2.8V107.7z M265.1,107.7h3.3v-5.3l-0.3,0.5
		L265.1,107.7z"/>
</g>
<g class="st1">
	<path d="M269.8,143h-2.7v-10.9l-3.6,1.3V131l6.2-2.2h0.1V143z"/>
</g>
<g class="st1">
	<path class="st0" d="M309.1,15.7h1.7v2.2h-1.7V21h-2.7v-3.1h-5.9l-0.1-1.7l6-9.4h2.8V15.7z M303.1,15.7h3.3v-5.3l-0.3,0.5
		L303.1,15.7z"/>
</g>
<g class="st1">
	<path class="st0" d="M295.8,52h-2.7V41.1l-3.6,1.3V40l6.2-2.2h0.1V52z"/>
	<path class="st0" d="M307.8,52h-2.7V41.1l-3.6,1.3V40l6.2-2.2h0.1V52z"/>
</g>
<g class="st1">
	<path class="st0" d="M295.8,82h-2.7V71.1l-3.6,1.3V70l6.2-2.2h0.1V82z"/>
	<path class="st0" d="M310.1,71.6c0,0.7-0.2,1.3-0.5,1.8c-0.3,0.5-0.8,1-1.4,1.3c0.7,0.3,1.2,0.8,1.6,1.4c0.4,0.6,0.6,1.3,0.6,2.1
		c0,0.7-0.1,1.3-0.4,1.8s-0.6,0.9-1,1.3c-0.4,0.3-0.9,0.6-1.5,0.8c-0.6,0.2-1.2,0.3-1.9,0.3c-0.7,0-1.3-0.1-1.9-0.3
		c-0.6-0.2-1.1-0.4-1.5-0.8s-0.8-0.8-1-1.3s-0.4-1.1-0.4-1.8c0-0.4,0.1-0.8,0.2-1.1s0.3-0.7,0.5-1s0.4-0.5,0.7-0.8
		c0.3-0.2,0.6-0.4,0.9-0.6c-0.6-0.3-1.1-0.7-1.4-1.3c-0.3-0.5-0.5-1.2-0.5-1.8c0-0.6,0.1-1.2,0.3-1.7c0.2-0.5,0.5-0.9,0.9-1.2
		c0.4-0.3,0.9-0.6,1.4-0.8c0.5-0.2,1.1-0.3,1.8-0.3s1.2,0.1,1.8,0.3s1,0.4,1.4,0.8s0.7,0.8,0.9,1.2S310.1,70.9,310.1,71.6z
		 M307.7,77.9c0-0.3,0-0.6-0.1-0.9s-0.2-0.5-0.4-0.7c-0.2-0.2-0.4-0.3-0.6-0.4c-0.3-0.1-0.5-0.1-0.8-0.1s-0.6,0-0.8,0.1
		c-0.3,0.1-0.5,0.2-0.6,0.4s-0.3,0.4-0.4,0.7s-0.1,0.6-0.1,0.9c0,0.7,0.2,1.2,0.6,1.5s0.9,0.6,1.5,0.6c0.3,0,0.6,0,0.8-0.1
		c0.2-0.1,0.5-0.2,0.6-0.4c0.2-0.2,0.3-0.4,0.4-0.7C307.6,78.5,307.7,78.3,307.7,77.9z M307.4,71.7c0-0.3,0-0.5-0.1-0.8
		c-0.1-0.2-0.2-0.4-0.4-0.6c-0.2-0.2-0.3-0.3-0.6-0.4c-0.2-0.1-0.5-0.1-0.7-0.1c-0.6,0-1,0.2-1.3,0.5c-0.3,0.3-0.4,0.8-0.4,1.4
		c0,0.3,0,0.5,0.1,0.8s0.2,0.4,0.3,0.6c0.2,0.2,0.3,0.3,0.6,0.4c0.2,0.1,0.5,0.1,0.7,0.1s0.5,0,0.7-0.1s0.4-0.2,0.5-0.4
		c0.2-0.2,0.3-0.4,0.3-0.6C307.4,72.2,307.4,72,307.4,71.7z"/>
</g>
<g class="st1">
	<path class="st0" d="M298.5,113h-9.7v-1.9l4.6-4.9c0.4-0.4,0.7-0.7,0.9-1.1c0.2-0.3,0.4-0.6,0.6-0.9c0.2-0.3,0.3-0.5,0.3-0.7
		s0.1-0.4,0.1-0.7c0-0.3,0-0.6-0.1-0.8c-0.1-0.2-0.2-0.5-0.4-0.6s-0.4-0.3-0.6-0.4c-0.2-0.1-0.5-0.1-0.8-0.1c-0.7,0-1.3,0.2-1.7,0.6
		c-0.4,0.4-0.6,1-0.6,1.7h-2.7c0-0.6,0.1-1.2,0.4-1.8c0.2-0.6,0.6-1.1,1-1.5s1-0.8,1.6-1c0.6-0.2,1.3-0.4,2.1-0.4
		c0.7,0,1.4,0.1,1.9,0.3s1,0.5,1.4,0.8c0.4,0.4,0.7,0.8,0.9,1.3s0.3,1.1,0.3,1.7c0,0.5-0.1,0.9-0.2,1.3s-0.4,0.8-0.6,1.3
		c-0.3,0.4-0.6,0.8-1,1.3c-0.4,0.4-0.8,0.9-1.3,1.4l-2.7,2.8h6.2V113z"/>
	<path class="st0" d="M301.3,106l0.8-7.2h7.9v2.3h-5.7l-0.3,3.1c0.2-0.1,0.5-0.2,0.9-0.4s0.8-0.2,1.3-0.2c0.7,0,1.3,0.1,1.8,0.3
		s1,0.5,1.4,0.9c0.4,0.4,0.6,0.9,0.8,1.5s0.3,1.3,0.3,2c0,0.6-0.1,1.2-0.3,1.8c-0.2,0.6-0.5,1.1-0.9,1.5s-0.9,0.8-1.5,1
		c-0.6,0.3-1.3,0.4-2.1,0.4c-0.6,0-1.2-0.1-1.8-0.3c-0.6-0.2-1.1-0.4-1.5-0.8c-0.4-0.4-0.8-0.8-1.1-1.3c-0.3-0.5-0.4-1.1-0.4-1.8
		h2.7c0.1,0.6,0.3,1.1,0.7,1.4s0.9,0.5,1.5,0.5c0.4,0,0.7-0.1,0.9-0.2c0.3-0.1,0.5-0.3,0.6-0.6c0.2-0.2,0.3-0.5,0.4-0.9
		c0.1-0.3,0.1-0.7,0.1-1.1c0-0.4,0-0.7-0.1-1c-0.1-0.3-0.2-0.6-0.4-0.8s-0.4-0.4-0.7-0.5s-0.6-0.2-1-0.2c-0.3,0-0.5,0-0.7,0.1
		s-0.4,0.1-0.5,0.2c-0.1,0.1-0.3,0.2-0.4,0.2s-0.2,0.2-0.3,0.3L301.3,106z"/>
</g>
<g class="st1">
	<path d="M310.5,143h-9.7v-1.9l4.6-4.9c0.4-0.4,0.7-0.7,0.9-1.1c0.2-0.3,0.4-0.6,0.6-0.9c0.2-0.3,0.3-0.5,0.3-0.7s0.1-0.4,0.1-0.7
		c0-0.3,0-0.6-0.1-0.8c-0.1-0.2-0.2-0.5-0.4-0.6s-0.4-0.3-0.6-0.4c-0.2-0.1-0.5-0.1-0.8-0.1c-0.7,0-1.3,0.2-1.7,0.6
		c-0.4,0.4-0.6,1-0.6,1.7h-2.7c0-0.6,0.1-1.2,0.4-1.8c0.2-0.6,0.6-1.1,1-1.5s1-0.8,1.6-1c0.6-0.2,1.3-0.4,2.1-0.4
		c0.7,0,1.4,0.1,1.9,0.3s1,0.5,1.4,0.8c0.4,0.4,0.7,0.8,0.9,1.3s0.3,1.1,0.3,1.7c0,0.5-0.1,0.9-0.2,1.3s-0.4,0.8-0.6,1.3
		c-0.3,0.4-0.6,0.8-1,1.3c-0.4,0.4-0.8,0.9-1.3,1.4l-2.7,2.8h6.2V143z"/>
</g>
<g transform="matrix(1, 0, 0, 1, -2963, -108)">
	<g id="Pfad_5-3">
		<polygon class="st0" points="3312.1,191.8 3309.2,189 3317,181.2 3309.2,173.4 3312.1,170.6 3322.6,181.2 		"/>
	</g>
</g>
<g transform="matrix(1, 0, 0, 1, -2963, -108)">
	<g id="Linie_25-3">
		<rect x="3293" y="179.2" class="st0" width="26" height="4"/>
	</g>
</g>
<g id="Symbol_5_1">
	<g transform="matrix(1, 0, 0, 1, -2963, -108)">
		<g id="Pfad_5-4">
			<polygon class="st0" points="2982.5,191.8 2972,181.2 2982.5,170.6 2985.4,173.4 2977.6,181.2 2985.4,189 			"/>
		</g>
	</g>
	<g transform="matrix(1, 0, 0, 1, -2963, -108)">
		<g id="Linie_25-4">
			<rect x="2975.6" y="179.2" class="st0" width="26" height="4"/>
		</g>
	</g>
</g>
</svg>
